<?xml version="1.0" encoding="UTF-8"?>
<svg width="20px" height="20px" viewBox="0 0 20 20" version="1.1" xmlns="http://www.w3.org/2000/svg" xmlns:xlink="http://www.w3.org/1999/xlink">
    <title>icon-doc</title>
    <g id="页面-1" stroke="none" stroke-width="1" fill="none" fill-rule="evenodd">
        <g id="定稿" transform="translate(-996.000000, -38.000000)">
            <g id="Header" transform="translate(120.000000, 24.000000)">
                <g id="icon-doc" transform="translate(876.000000, 14.000000)">
                    <rect id="矩形" fill="#FFFFFF" x="0" y="0" width="20" height="20"></rect>
                    <g id="编组" transform="translate(2.000000, 1.000000)" fill="#000000" fill-rule="nonzero">
                        <path d="M0,3.33349414 C0,1.55615722 1.311956,0.081625844 2.99055198,0.00329136468 L3.13142239,0 L12.8685956,0 C14.5669398,0 15.9249569,1.42713572 15.9967086,3.18604101 L16,3.33349414 L16,14.7690116 C16,16.5463485 14.688062,18.0208799 13.0094661,18.0992144 L12.8685956,18.1025057 L3.13142239,18.1025057 C1.43307822,18.1025057 0.0750611519,16.67537 0.00330940193,14.9164647 L0,14.7690116 L0,3.33349414 Z M1.64570038,14.7690116 C1.64570038,15.6774282 2.27369276,16.3969205 3.03531454,16.453532 L3.13142239,16.4568234 L12.8685956,16.4568234 C13.6407498,16.4568234 14.299681,15.7741943 14.3510263,14.8815762 L14.3543177,14.7690116 L14.3543177,3.33349414 C14.3543177,2.42507749 13.7263253,1.70558518 12.9647035,1.6489737 L12.8685956,1.64568234 L3.13142239,1.64568234 C2.35926824,1.64568234 1.70033703,2.32831137 1.64899174,3.22092947 L1.64570038,3.33349414 L1.64570038,14.7690116 Z" id="形状结合"></path>
                        <path d="M10.9622372,5.59531089 C11.4017623,5.59327703 11.7652929,5.93702481 11.7878214,6.37597692 C11.8103498,6.81492902 11.483921,7.19408771 11.0464962,7.23705265 L10.9622372,7.24101135 L5.03778081,7.24101135 C4.59825572,7.24304521 4.23472509,6.89929742 4.21219668,6.46034532 C4.18966826,6.02139321 4.51609703,5.64223452 4.95352187,5.59926959 L5.03778081,5.59531089 L10.9622372,5.59531089 L10.9622372,5.59531089 Z M9.08615936,10.2032214 C9.52568445,10.2011876 9.88921508,10.5449354 9.9117435,10.9838875 C9.93427191,11.4228396 9.60784314,11.8019983 9.1704183,11.8449632 L9.08615936,11.8489219 L4.93903987,11.8489219 C4.49951478,11.8509558 4.13598415,11.507208 4.11345574,11.0682559 C4.09092732,10.6293038 4.41735609,10.2501451 4.85478093,10.2071801 L4.93903987,10.2032214 L9.08615936,10.2032214 L9.08615936,10.2032214 Z" id="形状"></path>
                    </g>
                </g>
            </g>
        </g>
    </g>
</svg>