<?xml version="1.0" encoding="UTF-8"?>
<svg width="28px" height="28px" viewBox="0 0 28 28" version="1.1" xmlns="http://www.w3.org/2000/svg" xmlns:xlink="http://www.w3.org/1999/xlink">
    <title>icon-twitter</title>
    <g id="页面-1" stroke="none" stroke-width="1" fill="none" fill-rule="evenodd">
        <g id="交互稿-2" transform="translate(-1188.000000, -1953.000000)" fill="#FFFFFF" fill-rule="nonzero">
            <g id="Footer" transform="translate(0.000000, 1899.000000)">
                <g id="icon-twitter" transform="translate(1188.000000, 54.000000)">
                    <path d="M14,0 C6.24615384,0 0,6.24615384 0,14 C0,21.7538462 6.24615384,28 14,28 C21.7538462,28 28,21.7538462 28,14 C28,6.24615384 21.7538462,0 14,0 Z M20.7846154,10.0153846 C20.6769231,10.1230769 20.6769231,10.2307692 20.5692308,10.2307692 C20.3538462,10.4461538 20.1384615,10.5538462 19.9230769,10.6615385 C19.8153846,10.6615385 19.8153846,10.7692308 19.8153846,10.8769231 C19.9230769,12.0615385 19.7076923,13.2461538 19.2769231,14.4307692 C18.5230769,16.4769231 16.9076923,18.0923077 14.9692308,19.0615385 C13.3538462,20.0307692 11.4153846,20.3538461 9.69230768,19.9230769 C8.83076923,19.8153846 8.07692307,19.4923077 7.43076923,19.0615385 L7.32307693,18.9538462 C7.32307693,18.8461538 7.43076925,18.7384615 7.53846155,18.7384615 C8.07692309,18.7384615 8.61538461,18.6307692 9.15384616,18.4153846 C9.69230771,18.2 10.2307692,17.8769231 10.6615385,17.5538462 L10.7692308,17.4461538 C10.7692308,17.3384615 10.7692308,17.2307692 10.6615385,17.2307692 C10.2307692,17.1230769 9.90769229,16.9076923 9.58461539,16.6923077 C9.15384616,16.4769231 8.83076923,16.0461538 8.61538461,15.6153846 L8.61538461,15.5076923 C8.61538461,15.4 8.72307693,15.2923077 8.83076923,15.2923077 L9.15384616,15.2923077 C9.26153848,15.2923077 9.26153848,15.2923077 9.26153845,15.1846154 C9.36923077,15.0769231 9.26153845,14.9692308 9.15384616,14.8615385 C8.72307693,14.6461538 8.4,14.3230769 8.07692307,14 C7.64615384,13.5692308 7.43076923,13.0307692 7.43076923,12.4923077 L7.43076923,12.3846154 C7.43076923,12.2769231 7.64615384,12.2769231 7.64615384,12.2769231 C7.75384616,12.2769231 7.86153845,12.3846154 7.96923077,12.3846154 L8.18461539,12.3846154 C8.29230771,12.3846154 8.29230771,12.3846154 8.4,12.2769231 C8.50769229,12.1692307 8.50769232,12.0615385 8.4,11.9538462 C7.96923077,11.5230769 7.64615384,10.9846154 7.53846155,10.3384615 C7.43076923,9.8 7.53846155,9.15384616 7.75384616,8.61538461 L7.75384616,8.50769232 C7.53846155,8.61538464 7.64615384,8.61538464 7.75384616,8.72307693 C8.50769232,9.47692309 9.26153848,10.1230769 10.2307692,10.6615385 C11.3076923,11.2 12.4923077,11.5230769 13.6769231,11.5230769 C13.7846154,11.5230769 13.8923077,11.4153846 13.8923077,11.3076923 C13.8923077,10.6615385 14.1076923,8.50769232 16.0461538,7.96923077 C17.0153846,7.64615384 18.2,7.86153845 18.9538462,8.72307693 C18.9538462,8.72307693 19.0615385,8.83076925 19.1692308,8.83076923 C19.3846154,8.83076923 19.6,8.72307691 19.9230769,8.72307693 C20.1384615,8.61538461 20.3538462,8.61538461 20.5692308,8.50769232 L20.7846154,8.50769232 C20.8923077,8.50769232 20.8923077,8.72307693 20.8923077,8.83076923 C20.7846154,9.04615384 20.5692307,9.26153845 20.3538462,9.47692307 L20.2461538,9.58461539 C20.1384615,9.58461539 20.1384615,9.69230771 20.1384615,9.8 C20.1384616,9.90769229 20.2461539,10.0153846 20.3538462,10.0153846 C20.4615385,10.0153846 20.5692308,10.0153846 20.7846154,9.90769232 L21,9.90769232 C20.8923077,9.8 20.8923077,10.0153846 20.7846154,10.0153846 L20.7846154,10.0153846 Z" id="形状"></path>
                </g>
            </g>
        </g>
    </g>
</svg>