<?xml version="1.0" encoding="UTF-8"?>
<svg width="28px" height="28px" viewBox="0 0 28 28" version="1.1" xmlns="http://www.w3.org/2000/svg" xmlns:xlink="http://www.w3.org/1999/xlink">
    <title>icon-medium</title>
    <g id="页面-1" stroke="none" stroke-width="1" fill="none" fill-rule="evenodd">
        <g id="交互稿-2" transform="translate(-1136.000000, -1953.000000)" fill="#FFFFFF" fill-rule="nonzero">
            <g id="Footer" transform="translate(0.000000, 1899.000000)">
                <g id="icon-medium" transform="translate(1136.000000, 54.000000)">
                    <path d="M14,0 C6.26875,0 0,6.26875 0,14 C0,21.73125 6.26875,28 14,28 C21.73125,28 28,21.73125 28,14 C28,6.26875 21.73125,0 14,0 Z M20.8685053,9.23565624 L19.7633588,10.294755 C19.6658459,10.3678897 19.6197981,10.4870721 19.6387589,10.6035459 L19.6387589,18.3964541 C19.6197981,18.5156365 19.6658459,18.634819 19.7633588,18.705245 L20.8468358,19.7643438 L20.8468358,20 L15.4077813,20 L15.4077813,19.7751785 L16.5264713,18.6889929 C16.6375277,18.5779365 16.6375277,18.5454322 16.6375277,18.3802019 L16.6375277,12.0743659 L13.5225314,19.9729131 L13.1026841,19.9729131 L9.47845358,12.0743659 L9.47845358,17.3698596 C9.44594927,17.5919724 9.52450135,17.8167939 9.68160552,17.9766067 L11.138882,19.7399655 L11.138882,19.9756218 L7,19.9756218 L7,19.7399655 L8.45727653,17.9766067 C8.61438069,17.8167939 8.68209801,17.5892637 8.646885,17.3698596 L8.646885,11.2482147 C8.66584585,11.0775671 8.60083723,10.9123369 8.47082,10.7958631 L7.17606501,9.23565624 L7.17606501,9 L11.1984733,9 L14.3026348,15.8123615 L17.0357055,9.00541738 L20.8685053,9.00541738 L20.8685053,9.23565624 Z" id="形状"></path>
                </g>
            </g>
        </g>
    </g>
</svg>