<?xml version="1.0" encoding="UTF-8"?>
<svg width="16px" height="17px" viewBox="0 0 16 17" version="1.1" xmlns="http://www.w3.org/2000/svg" xmlns:xlink="http://www.w3.org/1999/xlink">
    <title>icon-copy</title>
    <g id="页面-1" stroke="none" stroke-width="1" fill="none" fill-rule="evenodd">
        <g id="定稿" transform="translate(-404.000000, -3434.000000)" fill="#FFFFFF" fill-rule="nonzero">
            <g id="编组-51" transform="translate(200.000000, 3176.000000)">
                <g id="编组-30" transform="translate(49.000000, 256.000000)">
                    <g id="icon-copy" transform="translate(155.000000, 2.000000)">
                        <path d="M13.4795995,12.4031123 C13.010435,12.4031123 12.630102,12.0227793 12.630102,11.5536149 C12.630102,11.0844504 13.010435,10.7041174 13.4795995,10.7041174 C13.9332493,10.7041174 14.3010051,10.3363616 14.3010051,9.88271179 L14.3010051,2.52040052 C14.3010051,2.06675073 13.9332493,1.69899491 13.4795995,1.69899491 L6.11728821,1.69899491 C5.66363842,1.69899491 5.2958826,2.06675073 5.2958826,2.52040052 C5.2958826,2.98956501 4.91554963,3.36989797 4.44638514,3.36989797 C3.97722065,3.36989797 3.59688769,2.98956501 3.59688769,2.52040052 C3.59997745,1.12970358 4.72659127,0.00308976246 6.11728821,0 L13.4795995,0 C14.8702964,0.00308976246 15.9969102,1.12970358 16,2.52040052 L16,9.88271179 C15.9969102,11.2734087 14.8702964,12.4000225 13.4795995,12.4031123 L13.4795995,12.4031123 Z" id="路径"></path>
                        <path d="M9.71304463,16.0853938 L2.66199102,16.0853938 C1.95571479,16.0862877 1.27810811,15.8061173 0.778694998,15.3067042 C0.279281884,14.8072911 -0.000888508337,14.1296844 3.78432895e-06,13.4234082 L3.78432895e-06,6.34426274 C-0.00118734964,5.63779195 0.278851106,4.95989618 0.778296685,4.46023977 C1.27774226,3.96058337 1.95551979,3.68025885 2.66199102,3.68115349 L9.71304463,3.68115349 C10.4193209,3.68025954 11.0969275,3.96042993 11.5963407,4.45984304 C12.0957538,4.95925616 12.3759242,5.63686283 12.3750281,6.34313906 L12.3750281,13.4222845 C12.4031199,14.895421 11.1861811,16.0853938 9.71304463,16.0853938 Z M2.66199102,5.38011784 C2.40594734,5.37803313 2.15977525,5.47881046 1.97871884,5.65986688 C1.79766242,5.8409233 1.69688508,6.08709538 1.6989698,6.34313906 L1.6989698,13.4222845 C1.69688508,13.6783282 1.79766242,13.9245003 1.97871884,14.1055567 C2.15977525,14.2866131 2.40594734,14.3873905 2.66199102,14.3853057 L9.71304463,14.3853057 C9.96908831,14.3873905 10.2152604,14.2866131 10.3963168,14.1055567 C10.5773732,13.9245003 10.6781506,13.6783282 10.6760659,13.4222845 L10.6760659,6.34313906 C10.6781506,6.08709538 10.5773732,5.8409233 10.3963168,5.65986688 C10.2152604,5.47881046 9.96908831,5.37803313 9.71304463,5.38011784 L2.66199102,5.38011784 Z" id="形状"></path>
                    </g>
                </g>
            </g>
        </g>
    </g>
</svg>