<?xml version="1.0" encoding="UTF-8"?>
<svg width="24px" height="24px" viewBox="0 0 24 24" version="1.1" xmlns="http://www.w3.org/2000/svg" xmlns:xlink="http://www.w3.org/1999/xlink">
    <title>Icon-Color</title>
    <defs>
        <rect id="path-1" x="0" y="0" width="24" height="24"></rect>
    </defs>
    <g id="页面-1" stroke="none" stroke-width="1" fill="none" fill-rule="evenodd">
        <g id="Icon-Color">
            <mask id="mask-2" fill="white">
                <use xlink:href="#path-1"></use>
            </mask>
            <use id="蒙版" fill-opacity="0" fill="#FFFFFF" xlink:href="#path-1"></use>
            <path d="M13.2097046,4.38710056 L13.2928932,4.29289322 C13.6533772,3.93240926 14.2206082,3.90467972 14.6128994,4.20970461 L14.7071068,4.29289322 L21.7071068,11.2928932 L21.7485042,11.336853 L21.7485042,11.336853 L21.8036654,11.4046934 L21.8036654,11.4046934 L21.8753288,11.5159379 L21.8753288,11.5159379 L21.9287745,11.628664 L21.9287745,11.628664 L21.9641549,11.734007 L21.9641549,11.734007 L21.9930928,11.8819045 L21.9930928,11.8819045 L22,12 L22,12 L21.9972121,12.0752385 L21.9972121,12.0752385 L21.9797599,12.2007258 L21.9797599,12.2007258 L21.9502619,12.3121425 L21.9502619,12.3121425 L21.9063266,12.4232215 L21.9063266,12.4232215 L21.8540045,12.5207088 L21.8540045,12.5207088 L21.7803112,12.625449 L21.7803112,12.625449 L21.7071068,12.7071068 L14.7071068,19.7071068 C14.3165825,20.0976311 13.6834175,20.0976311 13.2928932,19.7071068 C12.9324093,19.3466228 12.9046797,18.7793918 13.2097046,18.3871006 L13.2928932,18.2928932 L18.584,13 L3,13 C2.44771525,13 2,12.5522847 2,12 C2,11.4477153 2.44771525,11 3,11 L18.586,11 L13.2928932,5.70710678 C12.9324093,5.34662282 12.9046797,4.77939176 13.2097046,4.38710056 L13.2928932,4.29289322 L13.2097046,4.38710056 Z" fill="#FFFFFF" fill-rule="nonzero" mask="url(#mask-2)"></path>
        </g>
    </g>
</svg>