<?xml version="1.0" encoding="UTF-8"?>
<svg width="28px" height="28px" viewBox="0 0 28 28" version="1.1" xmlns="http://www.w3.org/2000/svg" xmlns:xlink="http://www.w3.org/1999/xlink">
    <title>icon-discord</title>
    <g id="页面-1" stroke="none" stroke-width="1" fill="none" fill-rule="evenodd">
        <g id="交互稿-2" transform="translate(-1240.000000, -1953.000000)" fill="#FFFFFF" fill-rule="nonzero">
            <g id="Footer" transform="translate(0.000000, 1899.000000)">
                <g id="icon-discord" transform="translate(1240.000000, 54.000000)">
                    <path d="M6.21994677,2.36162459 C11.7716568,-1.35008019 19.1721166,-0.623546617 23.8960022,4.09695564 C26.5269113,6.72030213 28.00381,10.2840134 27.9998252,13.9993348 C27.9998252,20.6775259 23.2827767,26.4258983 16.7330281,27.7293667 C10.1832795,29.032835 3.62479488,25.5284182 1.06803705,19.3590402 C-1.48872078,13.1896621 0.668236757,6.07332937 6.21994677,2.36162459 Z M16.5707627,7.15030592 L16.3466636,7.40241742 C17.7481013,7.77550278 19.0555557,8.43877344 20.1843608,9.3492784 C18.7482355,8.56485352 17.1740003,8.06547378 15.5483106,7.87862803 C14.5099225,7.76083334 13.4610376,7.77024038 12.4249293,7.9066404 C12.3356294,7.90903584 12.246653,7.91840177 12.1588116,7.93465278 C10.9485313,8.08134351 9.76774269,8.41196432 8.65726311,8.91508637 C8.15304013,9.15319169 7.83089764,9.32126602 7.76086668,9.3492784 C8.94730182,8.39046052 10.3287114,7.7021457 11.8086568,7.33238646 L11.8086568,7.33238646 L11.6545886,7.15030592 C10.0744513,7.23157865 8.55800423,7.79902337 7.31266848,8.77502442 C5.89787373,11.5696236 5.13638641,14.6490975 5.08568363,17.7810072 C6.17121007,19.2998847 7.93946031,20.1813863 9.80577103,20.1340478 C9.805771,20.1340478 10.3660188,19.4337381 10.8282232,18.8454779 C9.74975914,18.5725358 8.79935052,17.93398 8.13903392,17.0386789 C8.1670463,17.0526851 8.32111445,17.1507285 8.55921974,17.2907904 C8.58058612,17.3078556 8.60413849,17.321987 8.62925073,17.332809 C8.67126928,17.3608214 8.71328787,17.3748276 8.76931265,17.4168462 C9.13155387,17.612956 9.50579409,17.786042 9.8898082,17.9350753 C10.623257,18.2268349 11.3830988,18.4472829 12.1588116,18.5933665 C13.48091,18.8497129 14.839029,18.8592102 16.1645831,18.6213788 C16.9344796,18.4822425 17.6862277,18.2567181 18.4055742,17.9490815 C19.0258763,17.7180646 19.6179312,17.4173383 20.1703546,17.0526851 C19.4849471,17.9691879 18.4977799,18.614071 17.383122,18.8734903 C17.4139356,18.9127077 17.445185,18.9522985 17.4766751,18.9920388 L17.6669435,19.2304802 C18.0470156,19.7037775 18.4055742,20.1340478 18.4055742,20.1340478 C20.2718849,20.1813863 22.0401351,19.2998847 23.1256616,17.7810072 C23.0758667,14.650635 22.3193691,11.571977 20.9126829,8.77502442 C19.6673471,7.79902338 18.1509,7.23157866 16.5707627,7.15030592 L16.5707627,7.15030592 Z M11.2203966,12.9208579 C12.1292585,12.9557726 12.837797,13.7207435 12.8030965,14.6296135 C12.7341005,15.4827427 11.9988302,16.1261165 11.1440913,16.081271 C10.2893523,16.0364254 9.62544543,15.3196409 9.6461047,14.4639757 C9.66676397,13.6083105 10.3644894,12.9244014 11.2203966,12.9208579 Z M16.8648928,12.9208399 C17.7685528,12.9625008 18.4691905,13.7256955 18.4335865,14.6296135 C18.3644422,15.4845493 17.6263297,16.128486 16.769917,16.0810153 C15.9135044,16.0335446 15.2510814,15.3119767 15.276848,14.4546365 C15.3026146,13.5972963 16.0071751,12.9168119 16.8648928,12.9208399 Z" id="形状结合"></path>
                </g>
            </g>
        </g>
    </g>
</svg>