<?xml version="1.0" encoding="UTF-8"?>
<svg width="200px" height="45px" viewBox="0 0 200 45" version="1.1" xmlns="http://www.w3.org/2000/svg" xmlns:xlink="http://www.w3.org/1999/xlink">
    <title>img-dot-01</title>
    <g id="页面-1" stroke="none" stroke-width="1" fill="none" fill-rule="evenodd">
        <g id="定稿" transform="translate(-1173.000000, -128.000000)" fill="#E5E6ED">
            <g id="Banner" transform="translate(60.000000, 128.000000)">
                <g id="img-dot-01" transform="translate(1113.000000, 0.000000)">
                    <circle id="椭圆形" cx="1.5" cy="1.5" r="1.5"></circle>
                    <circle id="椭圆形备份-18" cx="1.5" cy="16.5" r="1.5"></circle>
                    <circle id="椭圆形备份-4" cx="16.5" cy="1.5" r="1.5"></circle>
                    <circle id="椭圆形备份-19" cx="16.5" cy="16.5" r="1.5"></circle>
                    <circle id="椭圆形备份-5" cx="30.5" cy="1.5" r="1.5"></circle>
                    <circle id="椭圆形备份-20" cx="30.5" cy="16.5" r="1.5"></circle>
                    <circle id="椭圆形备份-6" cx="43.5" cy="1.5" r="1.5"></circle>
                    <circle id="椭圆形备份-21" cx="43.5" cy="16.5" r="1.5"></circle>
                    <circle id="椭圆形备份-7" cx="58.5" cy="1.5" r="1.5"></circle>
                    <circle id="椭圆形备份-22" cx="58.5" cy="16.5" r="1.5"></circle>
                    <circle id="椭圆形备份-8" cx="71.5" cy="1.5" r="1.5"></circle>
                    <circle id="椭圆形备份-23" cx="71.5" cy="16.5" r="1.5"></circle>
                    <circle id="椭圆形备份-9" cx="86.5" cy="1.5" r="1.5"></circle>
                    <circle id="椭圆形备份-24" cx="86.5" cy="16.5" r="1.5"></circle>
                    <circle id="椭圆形备份-10" cx="99.5" cy="1.5" r="1.5"></circle>
                    <circle id="椭圆形备份-25" cx="99.5" cy="16.5" r="1.5"></circle>
                    <circle id="椭圆形备份-11" cx="114.5" cy="1.5" r="1.5"></circle>
                    <circle id="椭圆形备份-26" cx="114.5" cy="16.5" r="1.5"></circle>
                    <circle id="椭圆形备份-12" cx="128.5" cy="1.5" r="1.5"></circle>
                    <circle id="椭圆形备份-27" cx="128.5" cy="16.5" r="1.5"></circle>
                    <circle id="椭圆形备份-13" cx="143.5" cy="1.5" r="1.5"></circle>
                    <circle id="椭圆形备份-28" cx="143.5" cy="16.5" r="1.5"></circle>
                    <circle id="椭圆形备份-14" cx="155.5" cy="1.5" r="1.5"></circle>
                    <circle id="椭圆形备份-29" cx="155.5" cy="16.5" r="1.5"></circle>
                    <circle id="椭圆形备份-15" cx="169.5" cy="1.5" r="1.5"></circle>
                    <circle id="椭圆形备份-30" cx="169.5" cy="16.5" r="1.5"></circle>
                    <circle id="椭圆形备份-16" cx="184.5" cy="1.5" r="1.5"></circle>
                    <circle id="椭圆形备份-31" cx="184.5" cy="16.5" r="1.5"></circle>
                    <circle id="椭圆形备份-17" cx="198.5" cy="1.5" r="1.5"></circle>
                    <circle id="椭圆形备份-32" cx="198.5" cy="16.5" r="1.5"></circle>
                    <circle id="椭圆形备份-47" cx="1.5" cy="30.5" r="1.5"></circle>
                    <circle id="椭圆形备份-46" cx="16.5" cy="30.5" r="1.5"></circle>
                    <circle id="椭圆形备份-45" cx="30.5" cy="30.5" r="1.5"></circle>
                    <circle id="椭圆形备份-44" cx="43.5" cy="30.5" r="1.5"></circle>
                    <circle id="椭圆形备份-43" cx="58.5" cy="30.5" r="1.5"></circle>
                    <circle id="椭圆形备份-42" cx="71.5" cy="30.5" r="1.5"></circle>
                    <circle id="椭圆形备份-41" cx="86.5" cy="30.5" r="1.5"></circle>
                    <circle id="椭圆形备份-40" cx="99.5" cy="30.5" r="1.5"></circle>
                    <circle id="椭圆形备份-39" cx="114.5" cy="30.5" r="1.5"></circle>
                    <circle id="椭圆形备份-38" cx="128.5" cy="30.5" r="1.5"></circle>
                    <circle id="椭圆形备份-37" cx="143.5" cy="30.5" r="1.5"></circle>
                    <circle id="椭圆形备份-36" cx="155.5" cy="30.5" r="1.5"></circle>
                    <circle id="椭圆形备份-35" cx="169.5" cy="30.5" r="1.5"></circle>
                    <circle id="椭圆形备份-34" cx="184.5" cy="30.5" r="1.5"></circle>
                    <circle id="椭圆形备份-33" cx="198.5" cy="30.5" r="1.5"></circle>
                    <circle id="椭圆形备份-62" cx="1.5" cy="43.5" r="1.5"></circle>
                    <circle id="椭圆形备份-61" cx="16.5" cy="43.5" r="1.5"></circle>
                    <circle id="椭圆形备份-60" cx="30.5" cy="43.5" r="1.5"></circle>
                    <circle id="椭圆形备份-59" cx="43.5" cy="43.5" r="1.5"></circle>
                    <circle id="椭圆形备份-58" cx="58.5" cy="43.5" r="1.5"></circle>
                    <circle id="椭圆形备份-57" cx="71.5" cy="43.5" r="1.5"></circle>
                    <circle id="椭圆形备份-56" cx="86.5" cy="43.5" r="1.5"></circle>
                    <circle id="椭圆形备份-55" cx="99.5" cy="43.5" r="1.5"></circle>
                    <circle id="椭圆形备份-54" cx="114.5" cy="43.5" r="1.5"></circle>
                    <circle id="椭圆形备份-53" cx="128.5" cy="43.5" r="1.5"></circle>
                    <circle id="椭圆形备份-52" cx="143.5" cy="43.5" r="1.5"></circle>
                    <circle id="椭圆形备份-51" cx="155.5" cy="43.5" r="1.5"></circle>
                    <circle id="椭圆形备份-50" cx="169.5" cy="43.5" r="1.5"></circle>
                    <circle id="椭圆形备份-49" cx="184.5" cy="43.5" r="1.5"></circle>
                    <circle id="椭圆形备份-48" cx="198.5" cy="43.5" r="1.5"></circle>
                </g>
            </g>
        </g>
    </g>
</svg>