<?xml version="1.0" encoding="UTF-8"?>
<svg width="189px" height="136px" viewBox="0 0 189 136" version="1.1" xmlns="http://www.w3.org/2000/svg" xmlns:xlink="http://www.w3.org/1999/xlink">
    <title>img-dot-02</title>
    <g id="页面-1" stroke="none" stroke-width="1" fill="none" fill-rule="evenodd">
        <g id="定稿" transform="translate(-60.000000, -502.000000)" fill="#E5E6ED">
            <g id="Banner" transform="translate(60.000000, 128.000000)">
                <g id="img-dot-02" transform="translate(0.000000, 374.000000)">
                    <circle id="椭圆形" cx="1.5" cy="1.5" r="1.5"></circle>
                    <circle id="椭圆形备份-18" cx="1.5" cy="15.5" r="1.5"></circle>
                    <circle id="椭圆形备份-4" cx="15.5" cy="1.5" r="1.5"></circle>
                    <circle id="椭圆形备份-19" cx="15.5" cy="15.5" r="1.5"></circle>
                    <circle id="椭圆形备份-5" cx="28.5" cy="1.5" r="1.5"></circle>
                    <circle id="椭圆形备份-20" cx="28.5" cy="15.5" r="1.5"></circle>
                    <circle id="椭圆形备份-6" cx="41.5" cy="1.5" r="1.5"></circle>
                    <circle id="椭圆形备份-21" cx="41.5" cy="15.5" r="1.5"></circle>
                    <circle id="椭圆形备份-7" cx="55.5" cy="1.5" r="1.5"></circle>
                    <circle id="椭圆形备份-22" cx="55.5" cy="15.5" r="1.5"></circle>
                    <circle id="椭圆形备份-8" cx="67.5" cy="1.5" r="1.5"></circle>
                    <circle id="椭圆形备份-23" cx="67.5" cy="15.5" r="1.5"></circle>
                    <circle id="椭圆形备份-9" cx="81.5" cy="1.5" r="1.5"></circle>
                    <circle id="椭圆形备份-24" cx="81.5" cy="15.5" r="1.5"></circle>
                    <circle id="椭圆形备份-10" cx="94.5" cy="1.5" r="1.5"></circle>
                    <circle id="椭圆形备份-25" cx="94.5" cy="15.5" r="1.5"></circle>
                    <circle id="椭圆形备份-11" cx="108.5" cy="1.5" r="1.5"></circle>
                    <circle id="椭圆形备份-26" cx="108.5" cy="15.5" r="1.5"></circle>
                    <circle id="椭圆形备份-12" cx="121.5" cy="1.5" r="1.5"></circle>
                    <circle id="椭圆形备份-27" cx="121.5" cy="15.5" r="1.5"></circle>
                    <circle id="椭圆形备份-13" cx="135.5" cy="1.5" r="1.5"></circle>
                    <circle id="椭圆形备份-28" cx="135.5" cy="15.5" r="1.5"></circle>
                    <circle id="椭圆形备份-14" cx="147.5" cy="1.5" r="1.5"></circle>
                    <circle id="椭圆形备份-29" cx="147.5" cy="15.5" r="1.5"></circle>
                    <circle id="椭圆形备份-15" cx="160.5" cy="1.5" r="1.5"></circle>
                    <circle id="椭圆形备份-30" cx="160.5" cy="15.5" r="1.5"></circle>
                    <circle id="椭圆形备份-16" cx="174.5" cy="1.5" r="1.5"></circle>
                    <circle id="椭圆形备份-31" cx="174.5" cy="15.5" r="1.5"></circle>
                    <circle id="椭圆形备份-17" cx="187.5" cy="1.5" r="1.5"></circle>
                    <circle id="椭圆形备份-32" cx="187.5" cy="15.5" r="1.5"></circle>
                    <circle id="椭圆形备份-47" cx="1.5" cy="28.5" r="1.5"></circle>
                    <circle id="椭圆形备份-46" cx="15.5" cy="28.5" r="1.5"></circle>
                    <circle id="椭圆形备份-45" cx="28.5" cy="28.5" r="1.5"></circle>
                    <circle id="椭圆形备份-44" cx="41.5" cy="28.5" r="1.5"></circle>
                    <circle id="椭圆形备份-43" cx="55.5" cy="28.5" r="1.5"></circle>
                    <circle id="椭圆形备份-42" cx="67.5" cy="28.5" r="1.5"></circle>
                    <circle id="椭圆形备份-41" cx="81.5" cy="28.5" r="1.5"></circle>
                    <circle id="椭圆形备份-40" cx="94.5" cy="28.5" r="1.5"></circle>
                    <circle id="椭圆形备份-39" cx="108.5" cy="28.5" r="1.5"></circle>
                    <circle id="椭圆形备份-38" cx="121.5" cy="28.5" r="1.5"></circle>
                    <circle id="椭圆形备份-37" cx="135.5" cy="28.5" r="1.5"></circle>
                    <circle id="椭圆形备份-36" cx="147.5" cy="28.5" r="1.5"></circle>
                    <circle id="椭圆形备份-35" cx="160.5" cy="28.5" r="1.5"></circle>
                    <circle id="椭圆形备份-34" cx="174.5" cy="28.5" r="1.5"></circle>
                    <circle id="椭圆形备份-33" cx="187.5" cy="28.5" r="1.5"></circle>
                    <circle id="椭圆形备份-62" cx="1.5" cy="41.5" r="1.5"></circle>
                    <circle id="椭圆形备份-61" cx="15.5" cy="41.5" r="1.5"></circle>
                    <circle id="椭圆形备份-60" cx="28.5" cy="41.5" r="1.5"></circle>
                    <circle id="椭圆形备份-59" cx="41.5" cy="41.5" r="1.5"></circle>
                    <circle id="椭圆形备份-58" cx="55.5" cy="41.5" r="1.5"></circle>
                    <circle id="椭圆形备份-57" cx="67.5" cy="41.5" r="1.5"></circle>
                    <circle id="椭圆形备份-56" cx="81.5" cy="41.5" r="1.5"></circle>
                    <circle id="椭圆形备份-55" cx="94.5" cy="41.5" r="1.5"></circle>
                    <circle id="椭圆形备份-54" cx="108.5" cy="41.5" r="1.5"></circle>
                    <circle id="椭圆形备份-53" cx="121.5" cy="41.5" r="1.5"></circle>
                    <circle id="椭圆形备份-52" cx="135.5" cy="41.5" r="1.5"></circle>
                    <circle id="椭圆形备份-51" cx="147.5" cy="41.5" r="1.5"></circle>
                    <circle id="椭圆形备份-50" cx="160.5" cy="41.5" r="1.5"></circle>
                    <circle id="椭圆形备份-49" cx="174.5" cy="41.5" r="1.5"></circle>
                    <circle id="椭圆形备份-48" cx="187.5" cy="41.5" r="1.5"></circle>
                    <circle id="椭圆形备份-77" cx="1.5" cy="54.5" r="1.5"></circle>
                    <circle id="椭圆形备份-76" cx="15.5" cy="54.5" r="1.5"></circle>
                    <circle id="椭圆形备份-75" cx="28.5" cy="54.5" r="1.5"></circle>
                    <circle id="椭圆形备份-74" cx="41.5" cy="54.5" r="1.5"></circle>
                    <circle id="椭圆形备份-73" cx="55.5" cy="54.5" r="1.5"></circle>
                    <circle id="椭圆形备份-72" cx="67.5" cy="54.5" r="1.5"></circle>
                    <circle id="椭圆形备份-71" cx="81.5" cy="54.5" r="1.5"></circle>
                    <circle id="椭圆形备份-70" cx="94.5" cy="54.5" r="1.5"></circle>
                    <circle id="椭圆形备份-69" cx="108.5" cy="54.5" r="1.5"></circle>
                    <circle id="椭圆形备份-68" cx="121.5" cy="54.5" r="1.5"></circle>
                    <circle id="椭圆形备份-67" cx="135.5" cy="54.5" r="1.5"></circle>
                    <circle id="椭圆形备份-66" cx="147.5" cy="54.5" r="1.5"></circle>
                    <circle id="椭圆形备份-65" cx="160.5" cy="54.5" r="1.5"></circle>
                    <circle id="椭圆形备份-64" cx="174.5" cy="54.5" r="1.5"></circle>
                    <circle id="椭圆形备份-63" cx="187.5" cy="54.5" r="1.5"></circle>
                    <circle id="椭圆形备份-92" cx="1.5" cy="67.5" r="1.5"></circle>
                    <circle id="椭圆形备份-91" cx="15.5" cy="67.5" r="1.5"></circle>
                    <circle id="椭圆形备份-90" cx="28.5" cy="67.5" r="1.5"></circle>
                    <circle id="椭圆形备份-89" cx="41.5" cy="67.5" r="1.5"></circle>
                    <circle id="椭圆形备份-88" cx="55.5" cy="67.5" r="1.5"></circle>
                    <circle id="椭圆形备份-87" cx="67.5" cy="67.5" r="1.5"></circle>
                    <circle id="椭圆形备份-86" cx="81.5" cy="67.5" r="1.5"></circle>
                    <circle id="椭圆形备份-85" cx="94.5" cy="67.5" r="1.5"></circle>
                    <circle id="椭圆形备份-84" cx="108.5" cy="67.5" r="1.5"></circle>
                    <circle id="椭圆形备份-83" cx="121.5" cy="67.5" r="1.5"></circle>
                    <circle id="椭圆形备份-82" cx="135.5" cy="67.5" r="1.5"></circle>
                    <circle id="椭圆形备份-81" cx="147.5" cy="67.5" r="1.5"></circle>
                    <circle id="椭圆形备份-80" cx="160.5" cy="67.5" r="1.5"></circle>
                    <circle id="椭圆形备份-79" cx="174.5" cy="67.5" r="1.5"></circle>
                    <circle id="椭圆形备份-78" cx="187.5" cy="67.5" r="1.5"></circle>
                    <circle id="椭圆形备份-107" cx="1.5" cy="81.5" r="1.5"></circle>
                    <circle id="椭圆形备份-106" cx="15.5" cy="81.5" r="1.5"></circle>
                    <circle id="椭圆形备份-105" cx="28.5" cy="81.5" r="1.5"></circle>
                    <circle id="椭圆形备份-104" cx="41.5" cy="81.5" r="1.5"></circle>
                    <circle id="椭圆形备份-103" cx="55.5" cy="81.5" r="1.5"></circle>
                    <circle id="椭圆形备份-102" cx="67.5" cy="81.5" r="1.5"></circle>
                    <circle id="椭圆形备份-101" cx="81.5" cy="81.5" r="1.5"></circle>
                    <circle id="椭圆形备份-100" cx="94.5" cy="81.5" r="1.5"></circle>
                    <circle id="椭圆形备份-99" cx="108.5" cy="81.5" r="1.5"></circle>
                    <circle id="椭圆形备份-98" cx="121.5" cy="81.5" r="1.5"></circle>
                    <circle id="椭圆形备份-97" cx="135.5" cy="81.5" r="1.5"></circle>
                    <circle id="椭圆形备份-96" cx="147.5" cy="81.5" r="1.5"></circle>
                    <circle id="椭圆形备份-95" cx="160.5" cy="81.5" r="1.5"></circle>
                    <circle id="椭圆形备份-94" cx="174.5" cy="81.5" r="1.5"></circle>
                    <circle id="椭圆形备份-93" cx="187.5" cy="81.5" r="1.5"></circle>
                    <circle id="椭圆形备份-122" cx="1.5" cy="94.5" r="1.5"></circle>
                    <circle id="椭圆形备份-121" cx="15.5" cy="94.5" r="1.5"></circle>
                    <circle id="椭圆形备份-120" cx="28.5" cy="94.5" r="1.5"></circle>
                    <circle id="椭圆形备份-119" cx="41.5" cy="94.5" r="1.5"></circle>
                    <circle id="椭圆形备份-118" cx="55.5" cy="94.5" r="1.5"></circle>
                    <circle id="椭圆形备份-117" cx="67.5" cy="94.5" r="1.5"></circle>
                    <circle id="椭圆形备份-116" cx="81.5" cy="94.5" r="1.5"></circle>
                    <circle id="椭圆形备份-115" cx="94.5" cy="94.5" r="1.5"></circle>
                    <circle id="椭圆形备份-114" cx="108.5" cy="94.5" r="1.5"></circle>
                    <circle id="椭圆形备份-113" cx="121.5" cy="94.5" r="1.5"></circle>
                    <circle id="椭圆形备份-112" cx="135.5" cy="94.5" r="1.5"></circle>
                    <circle id="椭圆形备份-111" cx="147.5" cy="94.5" r="1.5"></circle>
                    <circle id="椭圆形备份-110" cx="160.5" cy="94.5" r="1.5"></circle>
                    <circle id="椭圆形备份-109" cx="174.5" cy="94.5" r="1.5"></circle>
                    <circle id="椭圆形备份-108" cx="187.5" cy="94.5" r="1.5"></circle>
                    <circle id="椭圆形备份-137" cx="1.5" cy="108.5" r="1.5"></circle>
                    <circle id="椭圆形备份-136" cx="15.5" cy="108.5" r="1.5"></circle>
                    <circle id="椭圆形备份-135" cx="28.5" cy="108.5" r="1.5"></circle>
                    <circle id="椭圆形备份-134" cx="41.5" cy="108.5" r="1.5"></circle>
                    <circle id="椭圆形备份-133" cx="55.5" cy="108.5" r="1.5"></circle>
                    <circle id="椭圆形备份-132" cx="67.5" cy="108.5" r="1.5"></circle>
                    <circle id="椭圆形备份-131" cx="81.5" cy="108.5" r="1.5"></circle>
                    <circle id="椭圆形备份-130" cx="94.5" cy="108.5" r="1.5"></circle>
                    <circle id="椭圆形备份-129" cx="108.5" cy="108.5" r="1.5"></circle>
                    <circle id="椭圆形备份-128" cx="121.5" cy="108.5" r="1.5"></circle>
                    <circle id="椭圆形备份-127" cx="135.5" cy="108.5" r="1.5"></circle>
                    <circle id="椭圆形备份-126" cx="147.5" cy="108.5" r="1.5"></circle>
                    <circle id="椭圆形备份-125" cx="160.5" cy="108.5" r="1.5"></circle>
                    <circle id="椭圆形备份-124" cx="174.5" cy="108.5" r="1.5"></circle>
                    <circle id="椭圆形备份-123" cx="187.5" cy="108.5" r="1.5"></circle>
                    <circle id="椭圆形备份-152" cx="1.5" cy="121.5" r="1.5"></circle>
                    <circle id="椭圆形备份-151" cx="15.5" cy="121.5" r="1.5"></circle>
                    <circle id="椭圆形备份-150" cx="28.5" cy="121.5" r="1.5"></circle>
                    <circle id="椭圆形备份-149" cx="41.5" cy="121.5" r="1.5"></circle>
                    <circle id="椭圆形备份-148" cx="55.5" cy="121.5" r="1.5"></circle>
                    <circle id="椭圆形备份-147" cx="67.5" cy="121.5" r="1.5"></circle>
                    <circle id="椭圆形备份-146" cx="81.5" cy="121.5" r="1.5"></circle>
                    <circle id="椭圆形备份-145" cx="94.5" cy="121.5" r="1.5"></circle>
                    <circle id="椭圆形备份-144" cx="108.5" cy="121.5" r="1.5"></circle>
                    <circle id="椭圆形备份-143" cx="121.5" cy="121.5" r="1.5"></circle>
                    <circle id="椭圆形备份-142" cx="135.5" cy="121.5" r="1.5"></circle>
                    <circle id="椭圆形备份-141" cx="147.5" cy="121.5" r="1.5"></circle>
                    <circle id="椭圆形备份-140" cx="160.5" cy="121.5" r="1.5"></circle>
                    <circle id="椭圆形备份-139" cx="174.5" cy="121.5" r="1.5"></circle>
                    <circle id="椭圆形备份-138" cx="187.5" cy="121.5" r="1.5"></circle>
                    <circle id="椭圆形备份-167" cx="1.5" cy="134.5" r="1.5"></circle>
                    <circle id="椭圆形备份-166" cx="15.5" cy="134.5" r="1.5"></circle>
                    <circle id="椭圆形备份-165" cx="28.5" cy="134.5" r="1.5"></circle>
                    <circle id="椭圆形备份-164" cx="41.5" cy="134.5" r="1.5"></circle>
                    <circle id="椭圆形备份-163" cx="55.5" cy="134.5" r="1.5"></circle>
                    <circle id="椭圆形备份-162" cx="67.5" cy="134.5" r="1.5"></circle>
                    <circle id="椭圆形备份-161" cx="81.5" cy="134.5" r="1.5"></circle>
                    <circle id="椭圆形备份-160" cx="94.5" cy="134.5" r="1.5"></circle>
                    <circle id="椭圆形备份-159" cx="108.5" cy="134.5" r="1.5"></circle>
                    <circle id="椭圆形备份-158" cx="121.5" cy="134.5" r="1.5"></circle>
                    <circle id="椭圆形备份-157" cx="135.5" cy="134.5" r="1.5"></circle>
                    <circle id="椭圆形备份-156" cx="147.5" cy="134.5" r="1.5"></circle>
                    <circle id="椭圆形备份-155" cx="160.5" cy="134.5" r="1.5"></circle>
                    <circle id="椭圆形备份-154" cx="174.5" cy="134.5" r="1.5"></circle>
                    <circle id="椭圆形备份-153" cx="187.5" cy="134.5" r="1.5"></circle>
                </g>
            </g>
        </g>
    </g>
</svg>