<?xml version="1.0" encoding="UTF-8"?>
<svg width="142px" height="40px" viewBox="0 0 142 40" version="1.1" xmlns="http://www.w3.org/2000/svg" xmlns:xlink="http://www.w3.org/1999/xlink">
    <title>icon-logo-2</title>
    <defs>
        <polygon id="path-1" points="6.42936956e-16 0 27.5218807 0 27.5218807 19.4400547 6.42936956e-16 19.4400547"></polygon>
        <polygon id="path-3" points="-9.18481365e-17 0 27.5272011 0 27.5272011 19.4436031 -9.18481365e-17 19.4436031"></polygon>
    </defs>
    <g id="页面-1" stroke="none" stroke-width="1" fill="none" fill-rule="evenodd">
        <g id="交互稿-1" transform="translate(-120.000000, -4664.000000)">
            <g id="Footer" transform="translate(0.000000, 4616.000000)">
                <g id="icon-logo-2" transform="translate(120.000000, 48.000000)">
                    <g id="编组-2">
                        <g id="编组" transform="translate(0.478119, 20.559945)">
                            <mask id="mask-2" fill="white">
                                <use xlink:href="#path-1"></use>
                            </mask>
                            <g id="Clip-2"></g>
                            <path d="M13.7794453,19.4123338 C11.8358203,19.4124378 9.89188515,19.3825029 7.94867385,19.4248067 C6.94051213,19.4467381 6.25178949,18.8537582 5.73504068,17.6432686 C3.96101111,13.4876282 2.15347611,9.36088333 0.372828184,5.21085578 C-0.373494837,3.47151747 0.00757767665,2.50487194 1.45389523,2.49063211 C4.00930443,2.46537459 6.56502386,2.5014419 9.12043306,2.4777435 C10.1646855,2.46807704 10.8692301,3.1119877 11.4014907,4.38078791 C12.6733526,7.41293667 15.3017705,13.4054114 15.3017705,13.4054114 C15.3017705,13.4054114 15.6115923,14.1615777 15.8754992,14.5692318 C16.054505,14.8456093 16.8959669,15.3744579 17.6907901,14.7965494 C18.4506601,14.2441063 18.3695852,13.5921923 17.9273963,12.569211 C16.5329915,9.34373317 15.1143883,6.13758821 13.7595902,2.87822578 C13.5135735,2.28618138 13.2570088,1.54487859 13.6615558,0.881323205 C13.964449,0.384384249 14.4564824,0.0463701338 14.8405538,0.0463701338 C17.3600791,0.0463701338 19.8792942,0.0391982476 22.3985093,0.000324545522 C23.3999492,-0.0151625711 24.1188681,0.523040716 24.6314804,1.74091015 C25.4816289,3.76067961 26.3380855,5.77618751 27.2344591,7.7545887 C27.6847141,8.74846661 27.5961936,9.53560711 27.0374596,10.3542415 C25.2327167,12.9983809 23.4837128,15.723074 21.6231275,18.2843728 C21.1632552,18.9174737 20.3716378,19.3163968 19.7166274,19.3622346 C17.7417721,19.5006831 15.7590575,19.4122299 13.7794453,19.4123338" id="Fill-1" fill="#FFA529" mask="url(#mask-2)"></path>
                        </g>
                        <g id="编组">
                            <mask id="mask-4" fill="white">
                                <use xlink:href="#path-3"></use>
                            </mask>
                            <g id="Clip-4"></g>
                            <path d="M13.6788411,0.035298153 C15.5861685,0.0347784511 17.4941164,0.0780176491 19.400513,0.0179401096 C20.4827176,-0.016152335 21.2390716,0.534108036 21.8059751,1.8699498 C23.572042,6.03130684 25.3887806,10.1491129 27.1729446,14.2950867 C27.887727,15.9562619 27.5107909,16.9561683 26.1332422,16.9718633 C23.5783501,17.0011745 21.0232511,16.9718633 18.4681522,16.9718633 C16.8035323,16.9718633 16.0894738,15.0259955 16.0894738,15.0259955 L12.0628248,5.87196624 C12.0628248,5.87196624 11.7490733,5.09688283 11.5576581,4.77217308 C11.4256012,4.54838944 10.6370862,4.00343003 9.86770231,4.53622842 C9.05012855,5.10239167 9.23285722,6.05739588 9.61734232,6.9452546 C10.8622137,9.82055733 12.2332474,12.6782941 13.4418212,15.5842593 C13.8388192,16.5388477 14.6285751,17.5403133 13.9581564,18.6341818 C13.5607448,19.282458 12.7571316,19.4509453 11.8652048,19.4366016 C9.63440527,19.4006382 7.40308868,19.3955451 5.17239256,19.4429419 C4.13206977,19.4649773 3.38636722,18.9375838 2.85327935,17.6502822 C2.03187935,15.66658 1.18152405,13.7055369 0.303557799,11.7715183 C-0.166965929,10.7350248 -0.0860978948,9.92179526 0.515552006,9.04817637 C2.27768922,6.48916422 3.96216417,3.81779251 5.7778687,1.3399578 C6.29006739,0.641062686 7.13607939,0.156076874 7.85137887,0.093608706 C9.78745475,-0.0751904707 11.7355264,0.0358178549 13.6788411,0.035298153" id="Fill-3" fill="#1740FF" mask="url(#mask-4)"></path>
                        </g>
                    </g>
                    <path d="M52.2335369,8.00001039 C55.8400356,8.00001039 57.6441114,9.41214439 57.6441114,12.2362045 L57.6441114,12.2362045 L57.6441114,14.4363105 C57.6441114,14.5527238 57.550302,14.6469977 57.4346932,14.6469977 L57.4346932,14.6469977 L53.3368313,14.6469977 C53.2212225,14.6469977 53.127413,14.5527238 53.127413,14.4363105 L53.127413,14.4363105 L53.127413,12.4772423 C53.127413,11.4903283 52.4687838,10.9962997 51.151422,10.9962997 L51.151422,10.9962997 L50.4456814,10.9962997 C49.1592106,10.9962997 48.5166985,11.4903283 48.5166985,12.4772423 L48.5166985,12.4772423 L48.5166985,16.5757154 C48.5166985,17.0352358 48.6416055,17.345186 48.8930728,17.505566 C49.1437135,17.6664657 49.551702,17.8730992 50.1163151,18.1254664 L50.1163151,18.1254664 L54.3976634,19.8130424 C55.3387542,20.2037543 56.0047187,20.5077799 56.3973134,20.7257429 C56.7890816,20.9442256 57.0948922,21.2079223 57.3147452,21.5178725 C57.5337717,21.8278228 57.6441114,22.4192435 57.6441114,23.2915112 L57.6441114,23.2915112 L57.6441114,28.5608727 C57.6441114,31.339303 55.8246417,32.7281543 52.1865289,32.7281543 L52.1865289,32.7281543 L49.4105745,32.7281543 C45.8033527,32.7281543 44,31.2128075 44,28.1821139 L44,28.1821139 L44,27.1530002 C44,27.036587 44.0938095,26.9422091 44.2095216,26.9422091 L44.2095216,26.9422091 L48.3071769,26.9422091 C48.422889,26.9422091 48.5166985,27.036587 48.5166985,27.1530002 L48.5166985,27.1530002 L48.5166985,28.2854307 C48.5166985,29.2496856 49.1908248,29.731865 50.5398008,29.731865 L50.5398008,29.731865 L51.3395575,29.731865 C52.531289,29.731865 53.127413,29.2496856 53.127413,28.2854307 L53.127413,28.2854307 L53.127413,24.0836408 C53.127413,23.6246401 53.0016794,23.3146899 52.7510387,23.1537902 C52.4996748,22.9934102 52.0924094,22.7867767 51.5277963,22.5338898 L51.5277963,22.5338898 L47.2463447,20.7774013 C46.3053573,20.4103878 45.6231724,20.1004376 45.1996867,19.8475506 C44.7763043,19.5951834 44.4704937,19.2679791 44.2822549,18.8659377 C44.0941194,18.46452 44,17.9420117 44,17.2989325 L44,17.2989325 L44,12.2362045 C44,9.41214439 45.8033527,8.00001039 49.4105745,8.00001039 L49.4105745,8.00001039 Z M69.6408233,8.00005197 C73.2789362,8.00005197 75.0984059,9.41208203 75.0984059,12.2361421 L75.0984059,12.2361421 L75.0984059,19.5719423 C75.0984059,22.3734474 73.29433,23.7737322 69.6878314,23.7737322 L69.6878314,23.7737322 L65.9238815,23.7737322 L65.9238815,32.5175088 C65.9238815,32.633818 65.8301754,32.7281959 65.7144633,32.7281959 L65.7144633,32.7281959 L61.6167047,32.7281959 C61.5010959,32.7281959 61.4072864,32.633818 61.4072864,32.5175088 L61.4072864,32.5175088 L61.4072864,8.21073912 C61.4072864,8.09432589 61.5010959,8.00005197 61.6167047,8.00005197 L61.6167047,8.00005197 Z M87.2363795,8 C90.8429815,8 92.6469541,9.412134 92.6469541,12.2361941 L92.6469541,12.2361941 L92.6469541,32.5174568 C92.6469541,32.63387 92.5532479,32.7282479 92.4375358,32.7282479 L92.4375358,32.7282479 L88.3397772,32.7282479 C88.2241684,32.7282479 88.1303589,32.63387 88.1303589,32.5174568 L88.1303589,32.5174568 L88.1303589,23.6703635 L82.9550313,23.6703635 L82.9550313,32.5174568 C82.9550313,32.63387 82.8613251,32.7282479 82.745613,32.7282479 L82.745613,32.7282479 L78.6477511,32.7282479 C78.5321423,32.7282479 78.4383328,32.63387 78.4383328,32.5174568 L78.4383328,32.5174568 L78.4383328,12.2361941 C78.4383328,9.412134 80.2415821,8 83.8489073,8 L83.8489073,8 Z M104.737951,8.00001039 C108.344553,8.00001039 110.148525,9.40081489 110.148525,12.2018002 L110.148525,12.2018002 L110.148525,14.780665 C110.148525,14.8970782 110.054716,14.9913522 109.939107,14.9913522 L109.939107,14.9913522 L105.841348,14.9913522 C105.725636,14.9913522 105.63193,14.8970782 105.63193,14.780665 L105.63193,14.780665 L105.63193,12.442838 C105.63193,11.4784791 104.956977,10.9962997 103.608828,10.9962997 L103.608828,10.9962997 L102.714848,10.9962997 C101.522497,10.9962997 100.926993,11.4784791 100.926993,12.442838 L100.926993,12.442838 L100.926993,28.2854307 C100.926993,29.2496856 101.522497,29.731865 102.714848,29.731865 L102.714848,29.731865 L103.843971,29.731865 C105.035703,29.731865 105.63193,29.2496856 105.63193,28.2854307 L105.63193,28.2854307 L105.63193,27.1530002 C105.63193,27.036587 105.725636,26.9422091 105.841348,26.9422091 L105.841348,26.9422091 L109.939107,26.9422091 C110.054716,26.9422091 110.148525,27.036587 110.148525,27.1530002 L110.148525,27.1530002 L110.148525,28.5264684 C110.148525,31.3279735 108.344553,32.7281543 104.737951,32.7281543 L104.737951,32.7281543 L101.820972,32.7281543 C98.213647,32.7281543 96.4103976,31.3279735 96.4103976,28.5264684 L96.4103976,28.5264684 L96.4103976,12.2018002 C96.4103976,9.40081489 98.213647,8.00001039 101.820972,8.00001039 L101.820972,8.00001039 Z M124.665282,8.00005197 C124.780994,8.00005197 124.874803,8.09432589 124.874803,8.21073912 L124.874803,8.21073912 L124.874803,10.7855502 C124.874803,10.9019634 124.780994,10.9963413 124.665282,10.9963413 L124.665282,10.9963413 L118.193772,10.9963413 L118.193772,18.5042668 L123.912533,18.5042668 C124.028245,18.5042668 124.121951,18.5986446 124.121951,18.7150578 L124.121951,18.7150578 L124.121951,21.2898689 C124.121951,21.4062822 124.028245,21.50066 123.912533,21.50066 L123.912533,21.50066 L118.193772,21.50066 L118.193772,29.7319066 L124.665282,29.7319066 C124.780994,29.7319066 124.874803,29.8261805 124.874803,29.9425937 L124.874803,29.9425937 L124.874803,32.5175088 C124.874803,32.633818 124.780994,32.7281959 124.665282,32.7281959 L124.665282,32.7281959 L113.677176,32.7281959 L113.677176,8.00005197 Z M132.496523,8.00004158 C132.581654,8.00004158 132.658313,8.05180389 132.690444,8.1311104 L132.690444,8.1311104 L137.483302,19.9507946 L137.483302,8.21072873 C137.483302,8.0943155 137.577111,8.00004158 137.69272,8.00004158 L137.69272,8.00004158 L141.790582,8.00004158 C141.906191,8.00004158 142,8.0943155 142,8.21072873 L142,8.21072873 L142,32.5174984 C142,32.6339116 141.906191,32.7281855 141.790582,32.7281855 L141.790582,32.7281855 L137.69272,32.7281855 C137.577111,32.7281855 137.483302,32.6339116 137.483302,32.5174984 L137.483302,32.5174984 L137.483302,27.8032824 L132.637237,16.5412383 L132.637237,32.5174984 C132.637237,32.6339116 132.543531,32.7281855 132.427819,32.7281855 L132.427819,32.7281855 L128.33006,32.7281855 C128.214451,32.7281855 128.120642,32.6339116 128.120642,32.5174984 L128.120642,32.5174984 L128.120642,8.21072873 C128.120642,8.0943155 128.214451,8.00004158 128.33006,8.00004158 L128.33006,8.00004158 Z M68.5586051,10.9963413 L65.9238815,10.9963413 L65.9238815,20.7774429 L68.793852,20.7774429 C69.9855834,20.7774429 70.5817074,20.2952634 70.5817074,19.3309046 L70.5817074,19.3309046 L70.5817074,12.4428796 C70.5817074,11.4785207 69.9068579,10.9963413 68.5586051,10.9963413 L68.5586051,10.9963413 Z M86.1543679,10.9962893 L84.9311256,10.9962893 C83.6137638,10.9962893 82.9550313,11.4784688 82.9550313,12.4428276 L82.9550313,12.4428276 L82.9550313,20.6740742 L88.1303589,20.6740742 L88.1303589,12.4428276 C88.1303589,11.4784688 87.4717297,10.9962893 86.1543679,10.9962893 L86.1543679,10.9962893 Z" id="形状结合" fill="#FFFFFF"></path>
                </g>
            </g>
        </g>
    </g>
</svg>