<?xml version="1.0" encoding="UTF-8"?>
<svg width="117px" height="32px" viewBox="0 0 117 32" version="1.1" xmlns="http://www.w3.org/2000/svg" xmlns:xlink="http://www.w3.org/1999/xlink">
    <title>icon-Logo</title>
    <defs>
        <rect id="path-1" x="0" y="0" width="117" height="32"></rect>
        <polygon id="path-3" points="5.14349565e-16 0 22.0175045 0 22.0175045 15.5520438 5.14349565e-16 15.5520438"></polygon>
        <polygon id="path-5" points="-7.34785092e-17 0 22.0217609 0 22.0217609 15.5548824 -7.34785092e-17 15.5548824"></polygon>
    </defs>
    <g id="页面-1" stroke="none" stroke-width="1" fill="none" fill-rule="evenodd">
        <g id="定稿" transform="translate(-120.000000, -32.000000)">
            <g id="Header" transform="translate(120.000000, 24.000000)">
                <g id="icon-Logo" transform="translate(0.000000, 8.000000)">
                    <mask id="mask-2" fill="white">
                        <use xlink:href="#path-1"></use>
                    </mask>
                    <use id="蒙版" fill="#FFFFFF" opacity="0" xlink:href="#path-1"></use>
                    <g id="Logo" mask="url(#mask-2)">
                        <g id="编组-2">
                            <g id="编组" transform="translate(0.382495, 16.447956)">
                                <mask id="mask-4" fill="white">
                                    <use xlink:href="#path-3"></use>
                                </mask>
                                <g id="Clip-2"></g>
                                <path d="M11.0235562,15.5298671 C9.46865626,15.5299502 7.91350812,15.5060023 6.35893908,15.5398453 C5.55240971,15.5573905 5.00143159,15.0830066 4.58803255,14.1146148 C3.16880889,10.7901026 1.72278089,7.48870666 0.298262547,4.16868463 C-0.29879587,2.77721398 0.00606214132,2.00389755 1.16311618,1.99250568 C3.20744354,1.97229967 5.25201909,2.00115352 7.29634644,1.9821948 C8.1317484,1.97446163 8.69538412,2.48959016 9.12119258,3.50463033 C10.138682,5.93034934 12.2414164,10.7243291 12.2414164,10.7243291 C12.2414164,10.7243291 12.4892738,11.3292621 12.7003994,11.6553855 C12.843604,11.8764874 13.5167735,12.2995664 14.1526321,11.8372395 C14.760528,11.395285 14.6956682,10.8737538 14.341917,10.0553688 C13.2263932,7.47498653 12.0915106,4.91007057 11.0076722,2.30258063 C10.8108588,1.8289451 10.605607,1.23590287 10.9292446,0.705058564 C11.1715592,0.307507399 11.5651859,0.037096107 11.8724431,0.037096107 C13.8880633,0.037096107 15.9034354,0.0313585981 17.9188074,0.000259636417 C18.7199594,-0.0121300569 19.2950945,0.418432572 19.7051843,1.39272812 C20.3853031,3.00854368 21.0704684,4.62095001 21.7875672,6.20367096 C22.1477713,6.99877329 22.0769549,7.62848569 21.6299677,8.28339323 C20.1861733,10.3987047 18.7869702,12.5784592 17.298502,14.6274983 C16.9306042,15.1339789 16.2973102,15.4531175 15.7733019,15.4897876 C14.1934177,15.6005465 12.607246,15.5297839 11.0235562,15.5298671" id="Fill-1" fill="#FFA529" mask="url(#mask-4)"></path>
                            </g>
                            <g id="编组">
                                <mask id="mask-6" fill="white">
                                    <use xlink:href="#path-5"></use>
                                </mask>
                                <g id="Clip-4"></g>
                                <path d="M10.9430729,0.0282385224 C12.4689348,0.0278227609 13.9952931,0.0624141193 15.5204104,0.0143520876 C16.3861741,-0.012921868 16.9912573,0.427286429 17.4447801,1.49595984 C18.8576336,4.82504547 20.3110245,8.1192903 21.7383556,11.4360694 C22.3101816,12.7650095 22.0086328,13.5649347 20.9065938,13.5774907 C18.8626801,13.6009396 16.8186009,13.5774907 14.7745217,13.5774907 C13.4428258,13.5774907 12.871579,12.0207964 12.871579,12.0207964 L9.65025981,4.69757299 C9.65025981,4.69757299 9.39925867,4.07750626 9.24612647,3.81773847 C9.14048096,3.63871156 8.50966893,3.20274403 7.89416185,3.62898274 C7.24010284,4.08191333 7.38628577,4.8459167 7.69387386,5.55620368 C8.68977094,7.85644586 9.78659794,10.1426353 10.753457,12.4674074 C11.0710553,13.2310782 11.7028601,14.0322506 11.1665251,14.9073455 C10.8485958,15.4259664 10.2057053,15.5607563 9.49216384,15.5492813 C7.70752422,15.5205106 5.92247094,15.5164361 4.13791405,15.5543535 C3.30565582,15.5719818 2.70909378,15.150067 2.28262348,14.1202258 C1.62550348,12.533264 0.945219242,10.9644295 0.242846239,9.41721461 C-0.133572743,8.58801983 -0.0688783158,7.93743621 0.412441605,7.23854109 C1.82215138,5.19133137 3.16973133,3.05423401 4.62229496,1.07196624 C5.03205391,0.512850149 5.70886351,0.124861499 6.2811031,0.0748869648 C7.8299638,-0.0601523766 9.38842111,0.0286542839 10.9430729,0.0282385224" id="Fill-3" fill="#1740FF" mask="url(#mask-6)"></path>
                            </g>
                        </g>
                        <path d="M41.7868295,6.40000832 C44.6720285,6.40000832 46.1152892,7.52971552 46.1152892,9.78896361 L46.1152892,9.78896361 L46.1152892,11.5490484 C46.1152892,11.642179 46.0402416,11.7175981 45.9477545,11.7175981 L45.9477545,11.7175981 L42.669465,11.7175981 C42.576978,11.7175981 42.5019304,11.642179 42.5019304,11.5490484 L42.5019304,11.5490484 L42.5019304,9.9817938 C42.5019304,9.19226268 41.975027,8.79703978 40.9211376,8.79703978 L40.9211376,8.79703978 L40.3565451,8.79703978 C39.3273685,8.79703978 38.8133588,9.19226268 38.8133588,9.9817938 L38.8133588,9.9817938 L38.8133588,13.2605723 C38.8133588,13.6281886 38.9132844,13.8761488 39.1144582,14.0044528 C39.3149708,14.1331726 39.6413616,14.2984794 40.0930521,14.5003731 L40.0930521,14.5003731 L43.5181307,15.850434 C44.2710033,16.1630035 44.803775,16.4062239 45.1178507,16.5805943 C45.4312653,16.7553805 45.6759137,16.9663379 45.8517961,17.214298 C46.0270173,17.4622582 46.1152892,17.9353948 46.1152892,18.633209 L46.1152892,18.633209 L46.1152892,22.8486981 C46.1152892,25.0714424 44.6597134,26.1825235 41.7492231,26.1825235 L41.7492231,26.1825235 L39.5284596,26.1825235 C36.6426821,26.1825235 35.2,24.970246 35.2,22.5456912 L35.2,22.5456912 L35.2,21.7224002 C35.2,21.6292696 35.2750476,21.5537673 35.3676173,21.5537673 L35.3676173,21.5537673 L38.6457415,21.5537673 C38.7383112,21.5537673 38.8133588,21.6292696 38.8133588,21.7224002 L38.8133588,21.7224002 L38.8133588,22.6283445 C38.8133588,23.3997485 39.3526599,23.785492 40.4318407,23.785492 L40.4318407,23.785492 L41.071646,23.785492 C42.0250312,23.785492 42.5019304,23.3997485 42.5019304,22.6283445 L42.5019304,22.6283445 L42.5019304,19.2669127 C42.5019304,18.8997121 42.4013435,18.6517519 42.2008309,18.5230321 C41.9997398,18.3947281 41.6739276,18.2294214 41.2222371,18.0271118 L41.2222371,18.0271118 L37.7970758,16.621921 C37.0442858,16.3283102 36.4985379,16.0803501 36.1597493,15.8780405 C35.8210435,15.6761467 35.576395,15.4143833 35.4258039,15.0927502 C35.2752955,14.771616 35.2,14.3536093 35.2,13.839146 L35.2,13.839146 L35.2,9.78896361 C35.2,7.52971552 36.6426821,6.40000832 39.5284596,6.40000832 L39.5284596,6.40000832 Z M55.7126586,6.40004158 C58.623149,6.40004158 60.0787247,7.52966562 60.0787247,9.78891372 L60.0787247,9.78891372 L60.0787247,15.6575539 C60.0787247,17.8987579 58.635464,19.0189857 55.7502651,19.0189857 L55.7502651,19.0189857 L52.7391052,19.0189857 L52.7391052,26.014007 C52.7391052,26.1070544 52.6641403,26.1825567 52.5715706,26.1825567 L52.5715706,26.1825567 L49.2933637,26.1825567 C49.2008767,26.1825567 49.1258291,26.1070544 49.1258291,26.014007 L49.1258291,26.014007 L49.1258291,6.5685913 C49.1258291,6.47546072 49.2008767,6.40004158 49.2933637,6.40004158 L49.2933637,6.40004158 Z M69.7891036,6.4 C72.6743852,6.4 74.1175633,7.5297072 74.1175633,9.7889553 L74.1175633,9.7889553 L74.1175633,26.0139654 C74.1175633,26.107096 74.0425983,26.1825983 73.9500286,26.1825983 L73.9500286,26.1825983 L70.6718218,26.1825983 C70.5793347,26.1825983 70.5042871,26.107096 70.5042871,26.0139654 L70.5042871,26.0139654 L70.5042871,18.9362908 L66.364025,18.9362908 L66.364025,26.0139654 C66.364025,26.107096 66.2890601,26.1825983 66.1964904,26.1825983 L66.1964904,26.1825983 L62.9182009,26.1825983 C62.8257138,26.1825983 62.7506662,26.107096 62.7506662,26.0139654 L62.7506662,26.0139654 L62.7506662,9.7889553 C62.7506662,7.5297072 64.1932657,6.4 67.0791259,6.4 L67.0791259,6.4 Z M83.7903605,6.40000832 C86.6756421,6.40000832 88.1188201,7.52065191 88.1188201,9.7614402 L88.1188201,9.7614402 L88.1188201,11.824532 C88.1188201,11.9176626 88.0437726,11.9930817 87.9512855,11.9930817 L87.9512855,11.9930817 L84.6730787,11.9930817 C84.580509,11.9930817 84.505544,11.9176626 84.505544,11.824532 L84.505544,11.824532 L84.505544,9.95427039 C84.505544,9.18278332 83.9655817,8.79703978 82.8870621,8.79703978 L82.8870621,8.79703978 L82.1718786,8.79703978 C81.2179975,8.79703978 80.7415942,9.18278332 80.7415942,9.95427039 L80.7415942,9.95427039 L80.7415942,22.6283445 C80.7415942,23.3997485 81.2179975,23.785492 82.1718786,23.785492 L82.1718786,23.785492 L83.075177,23.785492 C84.0285622,23.785492 84.505544,23.3997485 84.505544,22.6283445 L84.505544,22.6283445 L84.505544,21.7224002 C84.505544,21.6292696 84.580509,21.5537673 84.6730787,21.5537673 L84.6730787,21.5537673 L87.9512855,21.5537673 C88.0437726,21.5537673 88.1188201,21.6292696 88.1188201,21.7224002 L88.1188201,21.7224002 L88.1188201,22.8211747 C88.1188201,25.0623788 86.6756421,26.1825235 83.7903605,26.1825235 L83.7903605,26.1825235 L81.4567778,26.1825235 C78.5709176,26.1825235 77.1283181,25.0623788 77.1283181,22.8211747 L77.1283181,22.8211747 L77.1283181,9.7614402 C77.1283181,7.52065191 78.5709176,6.40000832 81.4567778,6.40000832 L81.4567778,6.40000832 Z M99.7322253,6.40004158 C99.824795,6.40004158 99.8998426,6.47546072 99.8998426,6.5685913 L99.8998426,6.5685913 L99.8998426,8.62844017 C99.8998426,8.72157075 99.824795,8.79707304 99.7322253,8.79707304 L99.7322253,8.79707304 L94.5550173,8.79707304 L94.5550173,14.8034134 L99.1300264,14.8034134 C99.2225961,14.8034134 99.297561,14.8789157 99.297561,14.9720463 L99.297561,14.9720463 L99.297561,17.0318951 C99.297561,17.1250257 99.2225961,17.200528 99.1300264,17.200528 L99.1300264,17.200528 L94.5550173,17.200528 L94.5550173,23.7855253 L99.7322253,23.7855253 C99.824795,23.7855253 99.8998426,23.8609444 99.8998426,23.954075 L99.8998426,23.954075 L99.8998426,26.014007 C99.8998426,26.1070544 99.824795,26.1825567 99.7322253,26.1825567 L99.7322253,26.1825567 L90.9417412,26.1825567 L90.9417412,6.40004158 Z M105.997218,6.40003326 C106.065323,6.40003326 106.12665,6.44144311 106.152355,6.50488832 L106.152355,6.50488832 L109.986641,15.9606357 L109.986641,6.56858298 C109.986641,6.4754524 110.061689,6.40003326 110.154176,6.40003326 L110.154176,6.40003326 L113.432465,6.40003326 C113.524952,6.40003326 113.6,6.4754524 113.6,6.56858298 L113.6,6.56858298 L113.6,26.0139987 C113.6,26.1071293 113.524952,26.1825484 113.432465,26.1825484 L113.432465,26.1825484 L110.154176,26.1825484 C110.061689,26.1825484 109.986641,26.1071293 109.986641,26.0139987 L109.986641,26.0139987 L109.986641,22.2426259 L106.109789,13.2329907 L106.109789,26.0139987 C106.109789,26.1071293 106.034825,26.1825484 105.942255,26.1825484 L105.942255,26.1825484 L102.664048,26.1825484 C102.571561,26.1825484 102.496513,26.1071293 102.496513,26.0139987 L102.496513,26.0139987 L102.496513,6.56858298 C102.496513,6.4754524 102.571561,6.40003326 102.664048,6.40003326 L102.664048,6.40003326 Z M54.8468841,8.79707304 L52.7391052,8.79707304 L52.7391052,16.6219543 L55.0350816,16.6219543 C55.9884667,16.6219543 56.465366,16.2362107 56.465366,15.4647237 L56.465366,15.4647237 L56.465366,9.95430365 C56.465366,9.18281658 55.9254863,8.79707304 54.8468841,8.79707304 L54.8468841,8.79707304 Z M68.9234943,8.79703146 L67.9449005,8.79703146 C66.891011,8.79703146 66.364025,9.182775 66.364025,9.95426208 L66.364025,9.95426208 L66.364025,16.5392593 L70.5042871,16.5392593 L70.5042871,9.95426208 C70.5042871,9.182775 69.9773838,8.79703146 68.9234943,8.79703146 L68.9234943,8.79703146 Z" id="形状结合" fill="#252D31"></path>
                    </g>
                </g>
            </g>
        </g>
    </g>
</svg>